<?xml version="1.0" standalone="no"?>
<!DOCTYPE svg PUBLIC "-//W3C//DTD SVG 20010904//EN"
 "http://www.w3.org/TR/2001/REC-SVG-20010904/DTD/svg10.dtd">
<svg version="1.0" xmlns="http://www.w3.org/2000/svg"
 width="512.000000pt" height="512.000000pt" viewBox="0 0 512.000000 512.000000"
 preserveAspectRatio="xMidYMid meet">
<metadata>
Created by potrace 1.14, written by Peter Selinger 2001-2017
</metadata>
<g transform="translate(0.000000,512.000000) scale(0.100000,-0.100000)"
fill="#000000" stroke="none">
<path d="M0 3475 c0 -905 4 -1645 8 -1645 5 0 19 11 32 25 22 23 73 56 193
123 23 13 44 27 47 31 6 8 85 41 100 41 14 0 12 -31 -7 -97 -10 -36 -17 -101
-18 -173 -2 -147 -13 -249 -30 -276 -14 -21 -28 -98 -46 -254 -6 -47 -11 -260
-13 -475 -1 -214 -6 -400 -10 -412 -11 -30 -32 -36 -62 -17 -13 9 -24 14 -24
11 0 -3 -12 5 -27 19 -19 18 -29 21 -31 12 -2 -7 -6 -20 -9 -28 -4 -8 -5 -21
-4 -28 1 -7 -5 -15 -14 -18 -8 -3 -15 -12 -15 -20 0 -17 -17 -18 -23 -1 -3 7
-6 4 -6 -7 -1 -14 -4 -16 -15 -7 -20 17 -26 -15 -26 -156 l0 -123 858 0 c654
0 861 3 870 12 9 9 12 9 12 0 0 -9 382 -12 1690 -12 l1690 0 0 2560 0 2560
-2560 0 -2560 0 0 -1645z m198 1397 c2 -37 -1 -62 -7 -62 -17 0 -28 32 -30 83
-1 41 1 48 16 45 15 -3 19 -15 21 -66z m2701 -287 c35 -9 93 -27 130 -42 101
-40 202 -111 144 -101 -26 5 -30 -32 -4 -39 12 -3 21 -9 21 -14 0 -5 8 -9 19
-9 10 0 23 -6 29 -13 12 -14 19 -128 9 -144 -4 -6 -4 -18 -1 -26 3 -8 -1 -21
-9 -28 -13 -12 -13 -18 0 -42 24 -47 12 -57 -66 -57 -61 0 -70 3 -76 20 -8 27
-19 25 -39 -5 -13 -19 -25 -25 -53 -25 -20 0 -44 -7 -54 -16 -9 -8 -26 -17
-36 -19 -10 -2 -19 -4 -20 -5 -2 -2 -6 -3 -10 -5 -18 -5 -49 -17 -65 -26 -10
-5 -23 -9 -30 -9 -6 0 -19 -7 -28 -15 -10 -9 -28 -18 -41 -20 -24 -5 -64 -31
-107 -69 -35 -31 -67 -85 -86 -143 -10 -29 -23 -53 -29 -53 -16 -1 -47 -65
-47 -98 0 -28 24 -71 47 -85 7 -4 13 -12 13 -18 0 -22 118 -119 144 -119 8 0
18 -4 21 -10 3 -5 19 -10 35 -10 23 0 30 5 35 30 4 17 15 35 25 40 10 5 27 29
39 52 20 41 85 98 97 85 3 -3 -1 -16 -10 -29 -19 -27 -21 -67 -4 -105 18 -40
34 -49 91 -52 20 -1 27 -6 27 -21 0 -14 -11 -22 -40 -31 -50 -15 -51 -25 -2
-38 158 -42 300 -12 401 86 13 13 28 23 34 23 5 0 15 8 22 17 11 14 17 15 58
4 26 -8 62 -29 85 -50 l39 -37 -1 -139 -2 -138 -45 -23 c-79 -41 -108 -54
-124 -54 -8 0 -15 -4 -15 -9 0 -13 -105 -31 -182 -31 -55 0 -75 4 -98 22 -17
12 -30 27 -30 32 0 16 -141 162 -170 177 -14 7 -43 14 -64 15 -31 2 -46 10
-77 43 -41 43 -57 48 -107 30 -27 -9 -31 -16 -37 -62 -4 -29 -16 -66 -26 -83
-10 -17 -19 -37 -19 -43 0 -29 -81 -122 -88 -101 -3 9 -6 9 -11 2 -6 -11 -82
-35 -166 -53 -64 -13 -169 -10 -208 6 -20 8 -61 15 -90 15 -44 0 -59 -5 -81
-25 -46 -43 -51 -34 -46 80 l2 50 -31 -33 c-17 -18 -31 -38 -31 -43 0 -19
-106 -116 -145 -134 -22 -9 -78 -35 -125 -57 -150 -70 -160 -76 -160 -110 0
-19 58 -78 77 -78 7 0 16 -7 21 -15 6 -13 14 -13 40 -4 18 6 32 14 32 18 0 3
34 26 76 51 90 53 207 158 233 208 l18 36 29 -31 c27 -29 36 -32 134 -43 102
-12 192 -41 230 -75 9 -8 52 -33 95 -56 79 -41 82 -42 215 -50 162 -9 214 -21
273 -61 26 -19 39 -68 17 -68 -5 0 -7 -6 -4 -14 3 -9 -5 -15 -25 -19 -17 -4
-31 -12 -31 -18 0 -16 73 -4 160 27 41 14 92 24 125 24 85 0 72 -15 -55 -62
-30 -12 -60 -24 -65 -29 -9 -6 -123 -40 -190 -56 -11 -3 -29 -8 -40 -13 -23
-10 -111 -29 -280 -61 l-120 -22 3 -42 c3 -38 1 -43 -37 -69 -23 -16 -41 -36
-41 -46 0 -9 -9 -25 -20 -35 -11 -10 -20 -29 -20 -42 0 -13 -5 -44 -11 -68
-15 -58 -5 -91 30 -110 30 -15 50 -18 201 -36 182 -21 230 -31 292 -61 35 -16
65 -33 68 -37 3 -3 14 -11 25 -17 11 -6 22 -19 23 -28 6 -28 -7 -66 -22 -66
-7 0 -21 -9 -31 -20 -10 -11 -43 -32 -73 -46 -31 -15 -62 -33 -70 -41 -8 -8
-27 -17 -43 -20 -15 -3 -36 -14 -45 -24 -13 -15 -31 -19 -80 -19 -34 0 -75 5
-89 10 -22 9 -39 4 -103 -26 -43 -19 -81 -42 -85 -50 -4 -8 -17 -14 -28 -14
-22 0 -79 -28 -91 -44 -3 -5 -36 -6 -75 -2 -103 10 -233 83 -342 190 -37 36
-49 44 -59 34 -19 -19 -14 -34 26 -81 20 -24 44 -54 52 -66 8 -13 49 -48 90
-79 41 -31 76 -60 78 -64 2 -4 10 -8 18 -8 9 0 13 -4 10 -8 -2 -4 8 -13 22
-20 15 -6 47 -30 72 -52 24 -22 47 -40 50 -40 3 0 21 -15 40 -33 19 -18 44
-39 56 -47 20 -14 87 -69 143 -118 14 -12 58 -44 96 -69 39 -26 79 -56 90 -66
28 -27 127 -87 142 -87 7 0 13 -4 13 -9 0 -17 40 -19 50 -3 8 15 9 14 10 -5 0
-42 49 -49 97 -15 30 21 31 21 36 2 4 -15 14 -20 40 -20 20 0 37 6 40 13 7 19
36 -24 37 -55 0 -28 15 -38 22 -17 3 8 10 9 23 2 11 -6 31 -9 45 -8 14 1 28
-3 32 -9 6 -8 8 -8 8 1 0 17 63 27 102 15 18 -6 63 -19 99 -30 37 -12 76 -18
88 -15 18 5 21 1 21 -29 0 -33 -1 -34 -42 -36 -56 -3 -98 -12 -98 -21 0 -10
-52 -39 -81 -45 -38 -7 -93 -28 -109 -41 -21 -17 -81 -45 -95 -45 -20 0 -110
-96 -130 -138 -10 -20 -21 -44 -25 -52 -4 -8 -29 -18 -56 -23 -27 -4 -84 -14
-126 -22 l-77 -15 -60 41 c-54 37 -64 41 -103 35 -56 -9 -77 -9 -113 -3 -16 3
-73 9 -124 13 -103 8 -148 29 -187 86 -20 29 -93 81 -131 92 -12 4 -25 16 -28
27 -4 12 -29 30 -58 43 -29 12 -58 30 -66 39 -7 10 -24 17 -37 17 -13 0 -36
11 -51 25 -72 64 -136 132 -148 155 -7 14 -32 46 -54 70 -23 25 -41 51 -41 58
0 7 -10 26 -21 42 -15 19 -20 36 -15 53 5 20 -1 32 -23 53 -24 22 -29 35 -28
71 0 34 -6 50 -27 72 -23 24 -26 34 -20 65 5 30 3 41 -14 56 -18 17 -20 28
-15 75 5 45 3 56 -11 61 -26 10 -47 59 -48 112 0 26 -9 64 -20 85 -14 29 -17
45 -10 70 5 18 5 43 1 56 -5 12 -6 28 -2 34 4 6 0 8 -10 4 -32 -12 -18 22 20
47 38 26 56 26 46 1 -6 -18 13 -20 23 -3 4 6 -2 19 -14 29 -26 20 -31 65 -7
55 8 -3 15 -1 15 4 0 14 -15 19 -38 13 -17 -4 -22 -13 -22 -38 0 -19 -8 -39
-20 -50 -19 -17 -20 -17 -20 -1 0 10 5 26 10 36 7 13 7 21 0 25 -13 8 -13 58
0 71 11 11 20 43 25 88 2 15 8 33 14 39 8 8 11 -1 11 -34 0 -25 -5 -50 -11
-56 -13 -13 -8 -59 6 -56 6 2 14 16 18 33 4 16 13 30 20 30 9 0 13 19 13 63 1
63 24 127 75 205 11 17 17 32 11 32 -5 0 -21 -18 -36 -40 -16 -24 -34 -40 -46
-40 -15 0 -18 4 -12 18 10 26 45 68 61 73 11 4 14 55 16 264 4 345 26 476 120
705 56 137 60 158 41 223 -23 79 -71 162 -87 151 -5 -3 -6 1 -3 9 3 8 -2 20
-10 27 -9 7 -14 16 -11 20 3 5 1 11 -5 15 -18 11 -11 31 21 54 18 13 29 19 25
12 -4 -7 0 -11 11 -11 11 0 23 -4 28 -9 6 -6 33 -13 60 -16 45 -6 54 -4 93 24
32 24 42 38 42 59 0 26 2 27 61 28 41 1 66 7 79 19 18 17 21 16 48 -7 23 -19
43 -25 83 -27 84 -2 92 -7 63 -36 -14 -14 -27 -25 -30 -25 -2 0 -24 -9 -49
-21 -30 -14 -45 -28 -45 -40 0 -10 -5 -19 -11 -19 -5 0 -8 -4 -4 -10 3 -5 33
-7 69 -3 71 6 107 0 130 -22 37 -38 -9 -61 -139 -70 -51 -3 -96 -12 -105 -19
-20 -18 -70 -29 -70 -16 0 5 9 10 20 10 12 0 20 7 20 16 0 14 -3 15 -17 3 -10
-7 -7 -2 5 13 l24 26 -22 22 c-21 21 -22 21 -35 3 -8 -10 -15 -21 -15 -25 0
-5 -9 -8 -19 -8 -11 0 -23 -6 -28 -12 -23 -39 -5 -83 30 -72 25 8 37 -10 37
-56 l1 -35 19 37 c11 20 30 44 42 53 26 17 97 39 105 31 3 -3 -4 -18 -16 -34
-13 -19 -21 -45 -21 -70 0 -42 0 -42 79 -101 l25 -18 -40 -26 c-21 -14 -59
-28 -84 -31 -25 -2 -47 -5 -50 -5 -3 -1 2 -6 10 -11 52 -33 272 20 369 90 43
30 80 91 91 149 5 29 20 67 32 84 13 18 22 33 21 34 -3 3 6 34 16 53 4 8 8 45
9 82 l2 66 -36 12 c-20 7 -47 25 -61 41 -14 16 -30 26 -34 23 -5 -3 -12 2 -15
10 -3 9 -21 18 -40 22 -19 3 -37 10 -40 15 -3 5 -10 7 -15 3 -14 -8 -112 17
-125 33 -6 7 -43 16 -83 19 -58 6 -74 11 -83 28 -11 20 -11 20 -19 -3 -5 -12
-13 -19 -19 -16 -5 3 -10 0 -10 -8 0 -8 -9 -22 -20 -32 -11 -10 -20 -15 -20
-10 0 4 -8 1 -17 -6 -10 -7 -6 0 8 16 15 17 30 41 34 55 13 44 56 122 120 220
100 153 256 285 438 370 90 42 154 62 207 66 19 1 60 7 90 13 71 13 267 5 349
-14z m-2798 -247 c43 -36 49 -46 49 -80 0 -28 5 -40 18 -45 9 -4 20 -11 24
-17 11 -15 10 -106 0 -106 -10 0 -32 44 -32 64 0 7 -18 27 -40 45 -54 43 -100
113 -100 150 0 43 21 40 81 -11z m4180 12 c20 0 6 -16 -29 -32 -44 -21 -71
-60 -100 -146 -26 -74 -30 -172 -7 -172 8 0 15 -4 15 -10 0 -5 6 -10 13 -10 6
-1 26 -7 42 -15 28 -14 26 -15 -46 -10 -74 5 -77 5 -105 -24 -16 -16 -49 -39
-74 -52 -52 -26 -148 -94 -170 -122 -18 -21 -57 -18 -97 8 -37 25 -27 54 27
74 61 23 112 59 183 128 77 75 95 99 152 208 25 50 58 105 71 123 27 34 79 63
102 56 8 -2 18 -4 23 -4z m154 -185 c32 -74 41 -157 19 -193 -24 -41 -121 -71
-139 -42 -3 5 -12 7 -20 3 -24 -9 -17 11 7 22 12 6 32 30 45 54 19 36 23 60
23 127 0 78 1 83 21 81 15 -1 28 -16 44 -52z m-3441 -96 c14 -17 29 -43 32
-57 3 -15 10 -38 15 -51 10 -23 22 -131 21 -175 -1 -29 -39 -62 -118 -106
-164 -90 -227 -21 -175 195 36 146 92 225 163 225 28 0 42 -7 62 -31z m736
-235 c0 -8 -4 -12 -10 -9 -5 3 -10 10 -10 16 0 5 5 9 10 9 6 0 10 -7 10 -16z
m1348 -196 c3 -24 0 -28 -20 -27 -13 1 -65 -13 -116 -30 -52 -17 -100 -31
-108 -31 -8 0 -21 -14 -28 -30 -7 -17 -15 -27 -19 -23 -4 3 -7 0 -7 -8 0 -8
-9 -25 -20 -39 -19 -24 -20 -24 -20 -3 0 12 3 23 8 25 4 2 23 36 42 76 49 103
105 133 228 122 53 -5 57 -7 60 -32z m57 -90 c43 -21 45 -24 40 -56 -5 -30
-67 -112 -85 -112 -3 0 -6 24 -6 54 -1 37 -8 67 -23 91 -11 20 -21 38 -21 41
0 12 55 1 95 -18z m-75 -78 c0 -5 -5 -10 -11 -10 -5 0 -7 5 -4 10 3 6 8 10 11
10 2 0 4 -4 4 -10z m-1006 -41 c29 -23 28 -43 -3 -86 -24 -33 -30 -28 -37 27
-4 28 -11 53 -15 56 -5 3 -9 9 -9 15 0 16 37 10 64 -12z m-64 -48 c0 -6 -4
-13 -10 -16 -5 -3 -10 1 -10 9 0 9 5 16 10 16 6 0 10 -4 10 -9z m-960 -1234
c0 -7 -16 -31 -35 -52 -29 -33 -35 -36 -41 -21 -5 12 3 28 27 52 35 36 49 42
49 21z m147 -109 c-3 -8 -6 -5 -6 6 -1 11 2 17 5 13 3 -3 4 -12 1 -19z m-219
-15 c2 -15 -4 -22 -23 -25 -14 -3 -28 -2 -31 3 -2 4 -12 5 -20 2 -14 -5 -15
-3 -5 15 13 24 37 29 44 10 3 -8 6 -5 6 5 1 25 25 16 29 -10z m-167 -100 c-8
-15 -10 -15 -11 -2 0 17 10 32 18 25 2 -3 -1 -13 -7 -23z m155 -30 c-10 -10
-19 5 -10 18 6 11 8 11 12 0 2 -7 1 -15 -2 -18z m-26 -16 c0 -2 -10 -12 -21
-23 -22 -19 -22 -19 -8 4 12 19 29 30 29 19z m-180 -121 c0 -16 -48 -61 -56
-54 -3 3 -1 14 5 25 5 10 12 26 15 35 6 20 36 14 36 -6z m-126 -101 c6 -18 -2
-45 -15 -45 -5 0 -9 14 -9 30 0 32 14 40 24 15z m9 -75 c3 -11 2 -20 -3 -20
-4 0 -10 9 -13 20 -3 11 -2 20 3 20 4 0 10 -9 13 -20z m97 -80 c-13 -23 -30
-35 -30 -20 0 20 21 51 31 45 6 -4 5 -13 -1 -25z m-132 -527 c-4 -22 -22 -20
-26 1 -2 10 3 16 13 16 10 0 15 -7 13 -17z m237 -225 c-4 -48 -4 -48 -14 -48
-5 0 -8 19 -6 43 4 52 3 49 14 43 5 -3 7 -20 6 -38z m125 -53 c0 -16 -6 -25
-15 -25 -15 0 -21 31 -8 43 13 14 23 6 23 -18z m-204 -12 c-10 -10 -19 5 -10
18 6 11 8 11 12 0 2 -7 1 -15 -2 -18z m164 -58 c0 -8 -4 -15 -10 -15 -5 0 -7
7 -4 15 4 8 8 15 10 15 2 0 4 -7 4 -15z m-343 -202 c-13 -12 -24 9 -19 34 l5
28 10 -28 c5 -16 7 -31 4 -34z m-320 -135 c-3 -8 -6 -5 -6 6 -1 11 2 17 5 13
3 -3 4 -12 1 -19z m1088 -238 c-3 -5 -11 -10 -16 -10 -6 0 -7 5 -4 10 3 6 11
10 16 10 6 0 7 -4 4 -10z"/>
<path d="M1720 3587 c0 -7 4 -19 10 -27 7 -12 12 -12 29 4 28 26 26 33 -9 34
-17 0 -30 -4 -30 -11z"/>
<path d="M1580 3412 c0 -5 7 -13 16 -16 10 -4 14 -1 12 6 -5 15 -28 23 -28 10z"/>
<path d="M1667 2523 c-17 -16 -3 -23 46 -23 l52 1 -34 14 c-36 16 -54 19 -64
8z"/>
<path d="M1167 1649 c-10 -14 -13 -27 -8 -32 5 -5 7 -17 3 -26 -5 -14 -4 -15
14 -1 10 8 22 19 26 25 4 5 10 6 14 2 4 -4 -1 -17 -12 -28 -14 -16 -16 -23 -6
-26 10 -4 10 -10 -3 -29 -9 -14 -13 -29 -10 -34 9 -15 25 -2 25 21 0 10 5 19
10 19 6 0 10 -3 10 -7 0 -15 -26 -79 -35 -85 -5 -4 -2 -10 7 -13 10 -4 19 -24
23 -48 4 -23 12 -45 17 -48 6 -4 11 -18 11 -32 0 -14 6 -28 13 -31 11 -4 12 4
8 38 -4 27 -2 46 5 50 6 4 11 12 11 18 0 6 -6 6 -15 -2 -9 -7 -19 -10 -23 -6
-7 8 -8 13 -10 59 -1 16 -6 25 -12 22 -15 -9 -12 12 7 48 29 56 26 80 -16 127
l-38 43 -16 -24z m28 -19 c-3 -5 -11 -10 -16 -10 -6 0 -7 5 -4 10 3 6 11 10
16 10 6 0 7 -4 4 -10z"/>
<path d="M1306 1308 c-20 -29 -20 -52 1 -99 14 -32 19 -36 34 -28 10 5 24 19
30 31 10 19 9 20 -10 15 -27 -7 -35 7 -20 34 8 17 8 23 -1 29 -7 4 -10 12 -6
18 13 22 -13 21 -28 0z"/>
<path d="M1366 1178 c-11 -42 -7 -68 9 -62 10 4 15 0 15 -16 0 -11 5 -18 10
-15 6 3 10 15 10 26 0 11 7 28 16 37 14 13 14 17 3 21 -8 2 -18 10 -22 17 -12
21 -34 17 -41 -8z"/>
<path d="M1473 1063 c-8 -2 -13 -22 -13 -44 0 -24 4 -38 10 -34 6 3 10 1 10
-5 0 -7 7 -10 15 -6 9 3 15 0 15 -9 0 -28 17 -15 28 22 12 39 7 57 -8 33 -6
-9 -10 -10 -10 -3 0 6 -9 14 -19 18 -12 4 -18 12 -14 21 5 15 5 15 -14 7z"/>
<path d="M1561 962 c-7 -28 -17 -55 -22 -58 -12 -7 -11 -44 1 -44 6 0 10 11
10 24 0 13 7 29 15 36 12 10 15 10 15 0 0 -8 2 -11 4 -9 2 2 0 27 -3 54 l-7
50 -13 -53z"/>
<path d="M1609 913 c-6 -15 -15 -31 -22 -35 -6 -4 -8 -11 -3 -15 9 -9 56 45
56 65 0 22 -20 12 -31 -15z"/>
<path d="M1634 844 c-9 -13 -15 -26 -13 -27 13 -10 62 -27 75 -27 23 0 27 27
7 47 -33 33 -51 35 -69 7z"/>
<path d="M1705 700 c-3 -5 -1 -10 4 -10 6 0 11 5 11 10 0 6 -2 10 -4 10 -3 0
-8 -4 -11 -10z"/>
<path d="M1870 686 c0 -8 5 -18 10 -21 6 -3 10 3 10 14 0 12 -4 21 -10 21 -5
0 -10 -6 -10 -14z"/>
<path d="M1815 639 c-4 -6 -5 -12 -2 -15 2 -3 7 2 10 11 7 17 1 20 -8 4z"/>
<path d="M2102 587 c-6 -6 -13 -24 -17 -40 -8 -32 9 -37 25 -7 6 11 8 20 5 20
-3 0 -1 9 5 20 12 22 -1 27 -18 7z"/>
<path d="M2950 591 c0 -6 5 -13 10 -16 6 -3 10 1 10 9 0 9 -4 16 -10 16 -5 0
-10 -4 -10 -9z"/>
<path d="M2390 571 c0 -12 5 -21 10 -21 6 0 10 6 10 14 0 8 -4 18 -10 21 -5 3
-10 -3 -10 -14z"/>
<path d="M2180 566 c0 -9 5 -16 10 -16 6 0 10 4 10 9 0 6 -4 13 -10 16 -5 3
-10 -1 -10 -9z"/>
<path d="M2329 549 c-15 -21 -15 -21 -34 -3 -12 13 -20 15 -22 7 -3 -7 -11 -9
-19 -6 -9 3 -14 -2 -14 -16 0 -23 7 -26 29 -12 9 6 22 6 32 0 12 -6 20 -5 24
2 4 6 13 8 21 5 15 -6 18 12 5 32 -6 10 -11 8 -22 -9z"/>
<path d="M2790 559 c0 -5 5 -7 10 -4 6 3 10 8 10 11 0 2 -4 4 -10 4 -5 0 -10
-5 -10 -11z"/>
<path d="M2934 555 c-4 -8 -12 -15 -20 -15 -15 0 -19 -16 -6 -24 5 -3 16 8 26
25 9 16 14 29 11 29 -3 0 -8 -7 -11 -15z"/>
<path d="M2136 551 c-4 -7 -5 -15 -2 -18 9 -9 19 4 14 18 -4 11 -6 11 -12 0z"/>
<path d="M2482 552 c-7 -5 -10 -16 -6 -26 5 -13 9 -14 20 -5 15 12 19 39 7 39
-5 0 -14 -4 -21 -8z"/>
<path d="M2690 540 c0 -19 11 -26 23 -14 8 8 -3 34 -14 34 -5 0 -9 -9 -9 -20z"/>
<path d="M2570 540 c0 -5 5 -10 10 -10 6 0 10 5 10 10 0 6 -4 10 -10 10 -5 0
-10 -4 -10 -10z"/>
<path d="M2416 523 c-4 -9 -2 -21 4 -27 7 -7 10 -7 10 1 0 6 3 18 6 27 3 9 2
16 -4 16 -5 0 -13 -8 -16 -17z"/>
<path d="M2532 520 c0 -14 2 -19 5 -12 2 6 2 18 0 25 -3 6 -5 1 -5 -13z"/>
<path d="M2765 531 c-3 -5 -1 -12 5 -16 5 -3 10 1 10 9 0 18 -6 21 -15 7z"/>
<path d="M2450 494 c0 -20 4 -33 10 -29 11 7 9 65 -2 65 -5 0 -8 -16 -8 -36z"/>
<path d="M2383 473 c-18 -7 -16 -23 2 -23 8 0 15 7 15 15 0 8 -1 15 -2 14 -2
0 -9 -3 -15 -6z"/>
<path d="M2731 464 c0 -11 3 -14 6 -6 3 7 2 16 -1 19 -3 4 -6 -2 -5 -13z"/>
<path d="M2340 460 c0 -5 5 -10 11 -10 5 0 7 5 4 10 -3 6 -8 10 -11 10 -2 0
-4 -4 -4 -10z"/>
<path d="M925 3992 c-11 -4 -31 -15 -44 -24 -21 -15 -23 -21 -18 -87 5 -70 18
-98 47 -98 8 0 30 -3 47 -7 30 -7 34 -5 43 20 12 29 -1 111 -26 172 -13 33
-16 34 -49 24z"/>
<path d="M17 323 c-4 -3 -7 -11 -7 -17 0 -6 5 -5 12 2 6 6 9 14 7 17 -3 3 -9
2 -12 -2z"/>
</g>
</svg>
